HIERARCHY
ROOT Hips
{
	OFFSET 0.000000 0.000000 0.000000
	CHANNELS 6 Xposition Yposition Zposition Xrotation Yrotation Zrotation
	JOINT LeftUpLeg_virtual
	{
		OFFSET 0.000000 0.000000 0.000000
		CHANNELS 3 Xrotation Yrotation Zrotation
		JOINT LeftUpLeg
		{
			OFFSET 11.394100 -6.187798 -0.413800
			CHANNELS 3 Xrotation Yrotation Zrotation
			JOINT LeftLeg
			{
				OFFSET 0.430247 -32.302673 3.732800
				CHANNELS 3 Xrotation Yrotation Zrotation
				JOINT LeftFoot
				{
					OFFSET -0.430247 -48.264931 -6.423300
					CHANNELS 3 Xrotation Yrotation Zrotation
					JOINT LeftToeBase
					{
						OFFSET 4.230900 -16.068199 23.438400
						CHANNELS 3 Xrotation Yrotation Zrotation
						JOINT LeftToe_End
						{
							OFFSET 4.510700 0.695400 19.974600
							CHANNELS 3 Xrotation Yrotation Zrotation
							End Site
							{
								OFFSET 0 0 0
							}
						}
					}
				}
			}
		}
	}
	JOINT RightUpLeg_virtual
	{
		OFFSET 0.000000 0.000000 0.000000
		CHANNELS 3 Xrotation Yrotation Zrotation
		JOINT RightUpLeg
		{
			OFFSET -11.333700 -6.187798 -0.413800
			CHANNELS 3 Xrotation Yrotation Zrotation
			JOINT RightLeg
			{
				OFFSET -0.430392 -32.302628 3.733000
				CHANNELS 3 Xrotation Yrotation Zrotation
				JOINT RightFoot
				{
					OFFSET 0.430392 -48.264973 -6.423500
					CHANNELS 3 Xrotation Yrotation Zrotation
					JOINT RightToeBase
					{
						OFFSET -4.230900 -16.068199 23.438400
						CHANNELS 3 Xrotation Yrotation Zrotation
						JOINT RightToe_End
						{
							OFFSET -4.510700 0.695400 19.974600
							CHANNELS 3 Xrotation Yrotation Zrotation
							End Site
							{
								OFFSET 0 0 0
							}
						}
					}
				}
			}
		}
	}
	JOINT Spine_virtual
	{
		OFFSET 0.000000 0.000000 0.000000
		CHANNELS 3 Xrotation Yrotation Zrotation
		JOINT Spine
		{
			OFFSET -0.002400 12.777504 0.315300
			CHANNELS 3 Xrotation Yrotation Zrotation
			JOINT Spine1
			{
				OFFSET -0.002067 5.816869 0.032633
				CHANNELS 3 Xrotation Yrotation Zrotation
				JOINT Spine1_split
				{
					OFFSET -0.002067 5.816869 0.032633
					CHANNELS 3 Xrotation Yrotation Zrotation
					JOINT Spine2
					{
						OFFSET -0.002067 5.816869 0.032633
						CHANNELS 3 Xrotation Yrotation Zrotation
						JOINT Neck_virtual
						{
							OFFSET 0.000000 0.000000 0.000000
							CHANNELS 3 Xrotation Yrotation Zrotation
							JOINT Neck
							{
								OFFSET -0.003700 21.199493 -0.826900
								CHANNELS 3 Xrotation Yrotation Zrotation
								JOINT Head
								{
									OFFSET 0.000000 20.442200 4.834800
									CHANNELS 3 Xrotation Yrotation Zrotation
									JOINT HeadTop_End
									{
										OFFSET 0.000000 34.668396 4.968400
										CHANNELS 3 Xrotation Yrotation Zrotation
										End Site
										{
											OFFSET 0 0 0
										}
									}
								}
							}
						}
						JOINT LeftShoulder_virtual
						{
							OFFSET 0.000000 0.000000 0.000000
							CHANNELS 3 Xrotation Yrotation Zrotation
							JOINT LeftShoulder
							{
								OFFSET 3.288150 8.794197 -1.372250
								CHANNELS 3 Xrotation Yrotation Zrotation
								JOINT LeftShoulder_split
								{
									OFFSET 3.288150 8.794197 -1.372250
									CHANNELS 3 Xrotation Yrotation Zrotation
									JOINT LeftArm
									{
										OFFSET 11.953299 -2.279007 -0.146200
										CHANNELS 3 Xrotation Yrotation Zrotation
										JOINT LeftForeArm
										{
											OFFSET 18.448900 0.000000 0.000000
											CHANNELS 3 Xrotation Yrotation Zrotation
											JOINT LeftHand
											{
												OFFSET 29.527798 0.000000 0.000000
												CHANNELS 3 Xrotation Yrotation Zrotation
												End Site
												{
													OFFSET 0 0 0
												}
											}
										}
									}
								}
							}
						}
						JOINT RightShoulder_virtual
						{
							OFFSET 0.000000 0.000000 0.000000
							CHANNELS 3 Xrotation Yrotation Zrotation
							JOINT RightShoulder
							{
								OFFSET -3.249400 8.794197 -1.372250
								CHANNELS 3 Xrotation Yrotation Zrotation
								JOINT RightShoulder_split
								{
									OFFSET -3.249400 8.794197 -1.372250
									CHANNELS 3 Xrotation Yrotation Zrotation
									JOINT RightArm
									{
										OFFSET -11.953299 -2.279007 -0.146200
										CHANNELS 3 Xrotation Yrotation Zrotation
										JOINT RightForeArm
										{
											OFFSET -18.448900 0.000000 0.000000
											CHANNELS 3 Xrotation Yrotation Zrotation
											JOINT RightHand
											{
												OFFSET -29.527802 0.000000 0.000000
												CHANNELS 3 Xrotation Yrotation Zrotation
												End Site
												{
													OFFSET 0 0 0
												}
											}
										}
									}
								}
							}
						}
					}
				}
			}
		}
	}
}
MOTION
Frames: 8
Frame Time: 0.03333333
-0.543978 97.147980 -2.006069 0.000000 0.000000 0.000000 -1.866843 -0.738538 -0.535988 -15.570885 2.819342 10.677503 26.110606 4.891040 2.354453 -8.599992 2.474393 -11.369343 2.336561 0.360039 -2.254586 0.000000 0.000000 0.000000 -1.657374 -0.563368 -0.401251 -22.407334 2.535543 -4.281110 30.956917 -2.725045 -2.851556 -5.154956 -0.207040 6.552179 3.465175 0.629332 1.442138 0.000000 0.000000 0.000000 -1.761244 -1.858591 -0.596152 0.628155 -0.735944 0.267712 -1.266493 -0.297050 0.611665 1.052979 0.252580 0.018588 0.000000 0.000000 0.000000 -1.589203 0.023381 0.621247 -0.656696 0.466769 -0.867239 4.340452 -1.929951 2.213190 0.000000 0.000000 0.000000 -1.715398 0.205687 0.312648 1.492303 -10.378186 -10.311339 -2.844880 0.472938 -1.772470 20.660976 -21.542007 -65.621493 -1.080652 -19.749070 0.884738 0.000000 0.000000 0.000000 -1.167484 0.167599 0.537170 1.565264 5.381972 10.705372 -0.158641 3.251781 -2.201666 5.987778 23.432214 66.407969 0.635271 16.159714 0.705451 0.000000 0.000000 0.000000 
-0.390751 97.292114 -1.915672 0.000000 0.000000 0.000000 -1.826294 -0.693801 -0.536426 -15.575046 2.650395 10.651539 25.868609 5.102564 2.306442 -8.425869 2.549900 -11.106715 2.175412 0.393776 -2.222251 0.000000 0.000000 0.000000 -1.590918 -0.623146 -0.417191 -22.086860 2.594528 -4.282663 30.645502 -2.753388 -2.936791 -5.002609 -0.307582 6.121990 2.963621 0.550140 1.675053 0.000000 0.000000 0.000000 -1.586735 -1.967526 -0.668025 0.495892 -0.709377 0.333676 -1.218927 -0.306895 0.603388 1.172520 0.399780 0.093528 0.000000 0.000000 0.000000 -1.600361 -0.000422 0.624931 -0.666505 0.536796 -0.856158 4.278379 -1.994144 2.144308 0.000000 0.000000 0.000000 -1.703063 0.212216 0.308710 1.488924 -10.451544 -10.462973 -2.840250 0.503821 -1.761588 20.655481 -21.647323 -65.682562 -1.076859 -19.792992 0.774067 0.000000 0.000000 0.000000 -1.143363 0.160589 0.521587 1.587216 5.558561 10.792020 -0.071687 3.391859 -2.240482 6.144352 23.523248 66.277246 0.678664 16.095655 0.715898 0.000000 0.000000 0.000000 
-0.261325 97.428375 -1.833080 0.000000 0.000000 0.000000 -1.855336 -0.763586 -0.570276 -15.604090 2.612756 10.643275 25.584965 5.536412 2.315650 -8.103721 2.519607 -10.709219 2.066153 0.452440 -2.067895 0.000000 0.000000 0.000000 -1.528664 -0.612294 -0.501136 -21.736186 2.647744 -4.256754 30.491201 -2.781451 -3.068337 -5.507247 -0.383530 5.336828 2.871522 0.558941 1.678289 0.000000 0.000000 0.000000 -1.399719 -2.149615 -0.781789 0.461665 -0.658672 0.465072 -1.136957 -0.307416 0.572048 1.220001 0.425598 0.087773 0.000000 0.000000 0.000000 -1.578399 -0.023917 0.600076 -0.646962 0.660134 -0.918072 4.035736 -2.082331 2.142976 0.000000 0.000000 0.000000 -1.657930 0.208924 0.275805 1.475495 -10.588088 -10.617415 -2.862659 0.740370 -1.713975 20.564316 -21.660362 -65.742524 -1.030691 -19.960972 0.663801 0.000000 0.000000 0.000000 -1.096095 0.142174 0.477992 1.639175 5.732497 10.868137 0.053713 3.532786 -2.290421 6.418345 23.815478 65.928387 0.741111 16.205180 0.704925 0.000000 0.000000 0.000000 
-0.139039 97.458397 -1.818840 0.000000 0.000000 0.000000 -1.913495 -0.976943 -0.611708 -15.620375 2.750099 10.595272 25.365178 6.128994 2.395502 -7.823031 2.418320 -10.273603 1.985586 0.534696 -1.806160 0.000000 0.000000 0.000000 -1.442928 -0.583647 -0.575222 -21.648413 2.660112 -4.290233 30.650358 -2.760662 -3.155689 -6.158382 -0.432653 4.554929 2.948282 0.612421 1.452684 0.000000 0.000000 0.000000 -1.236063 -2.401357 -0.872316 0.530629 -0.603019 0.600694 -1.018273 -0.290553 0.525888 1.140588 0.354721 -0.027599 0.000000 0.000000 0.000000 -1.509850 -0.034968 0.558841 -0.614574 0.807487 -1.027947 3.604003 -2.199471 2.232795 0.000000 0.000000 0.000000 -1.583069 0.207144 0.227342 1.449450 -10.762724 -10.744799 -2.957089 1.034039 -1.638689 20.443615 -21.669059 -65.671552 -0.961533 -20.210332 0.541381 0.000000 0.000000 0.000000 -1.028596 0.121682 0.415347 1.716326 5.891023 10.902515 0.222261 3.643300 -2.310710 6.699050 24.289777 65.409812 0.805027 16.453465 0.682212 0.000000 0.000000 0.000000 
0.004028 97.385544 -1.855530 0.000000 0.000000 0.000000 -1.903223 -1.324815 -0.637005 -15.735957 3.000348 10.479778 25.331363 6.806437 2.546106 -7.755852 2.271486 -9.909483 1.902594 0.618756 -1.460388 0.000000 0.000000 0.000000 -1.300297 -0.639556 -0.617601 -21.942584 2.596537 -4.398000 30.836095 -2.507274 -3.214955 -6.425816 -0.450489 4.372333 2.243727 0.622661 0.971895 0.000000 0.000000 0.000000 -1.074824 -2.675700 -0.941164 0.686759 -0.560085 0.676617 -0.853001 -0.259434 0.476610 1.011175 0.224599 -0.106872 0.000000 0.000000 0.000000 -1.385239 -0.023906 0.513808 -0.596301 0.931336 -1.140310 2.980369 -2.340428 2.448799 0.000000 0.000000 0.000000 -1.467050 0.221617 0.181710 1.409919 -10.980280 -10.821010 -3.023993 1.225662 -1.741696 20.308811 -21.759796 -65.404751 -0.879004 -20.559047 0.406872 0.000000 0.000000 0.000000 -0.933262 0.112025 0.354222 1.808933 6.054976 10.896935 0.394887 3.704026 -2.340833 6.886707 24.923352 64.796659 0.840371 16.785130 0.652515 0.000000 0.000000 0.000000 
0.143755 97.236977 -1.906158 0.000000 0.000000 0.000000 -1.752480 -1.720642 -0.658764 -16.048013 3.250453 10.344924 25.603944 7.474561 2.750993 -7.949311 2.091882 -9.748120 1.736908 0.676103 -1.039004 0.000000 0.000000 0.000000 -1.042835 -0.859279 -0.652956 -22.573415 2.525598 -4.487449 30.795120 -2.031592 -3.269137 -6.232902 -0.477761 4.862795 0.896789 0.565514 0.382055 0.000000 0.000000 0.000000 -0.882786 -2.984835 -1.057802 0.894168 -0.540955 0.666185 -0.647337 -0.213781 0.429383 0.920993 0.089056 -0.045754 0.000000 0.000000 0.000000 -1.194504 0.015084 0.471903 -0.614171 1.004899 -1.220620 2.170981 -2.534566 2.809087 0.000000 0.000000 0.000000 -1.312472 0.259398 0.148870 1.357445 -11.256545 -10.828422 -2.959737 1.258616 -1.970469 20.117643 -21.905677 -64.936869 -0.789542 -20.980476 0.267738 0.000000 0.000000 0.000000 -0.800161 0.125272 0.304470 1.898795 6.281067 10.852712 0.558514 3.749150 -2.357618 6.924697 25.701382 64.156643 0.833016 17.132642 0.625487 0.000000 0.000000 0.000000 
0.270698 97.087906 -2.064423 0.000000 0.000000 0.000000 -1.450569 -2.269461 -0.752653 -16.558020 3.374043 10.284953 26.265339 8.123697 3.000140 -8.374474 1.995787 -9.855889 1.518345 0.683132 -0.603205 0.000000 0.000000 0.000000 -0.664386 -1.308374 -0.749471 -23.423490 2.451627 -4.460944 30.439957 -1.545446 -3.297810 -5.698928 -0.592207 5.525929 -0.164575 0.461324 0.003581 0.000000 0.000000 0.000000 -0.588503 -3.348062 -1.262167 1.122051 -0.529194 0.553718 -0.394253 -0.155954 0.384405 0.918435 0.042085 0.052831 0.000000 0.000000 0.000000 -0.932406 0.075263 0.427231 -0.680804 0.997134 -1.236932 1.217594 -2.814491 3.343880 0.000000 0.000000 0.000000 -1.109920 0.312328 0.121871 1.298462 -11.619843 -10.762876 -2.716508 1.144755 -2.164895 19.673773 -21.982353 -64.348783 -0.666256 -21.433069 0.155152 0.000000 0.000000 0.000000 -0.617549 0.160627 0.267665 1.980137 6.607795 10.799980 0.688559 3.748643 -2.334251 6.793236 26.614389 63.561351 0.785266 17.449824 0.595152 0.000000 0.000000 0.000000 
0.368807 97.011818 -2.412037 0.000000 0.000000 0.000000 -0.998741 -2.917397 -0.998284 -17.297855 3.239748 10.430407 27.326702 8.772235 3.227110 -9.026021 2.108884 -10.236477 1.264021 0.644559 -0.195044 0.000000 0.000000 0.000000 -0.212181 -2.026518 -1.014548 -24.497426 2.400871 -4.205054 29.823946 -1.220604 -3.293769 -5.103793 -0.816440 6.039193 -0.199908 0.319870 0.063686 0.000000 0.000000 0.000000 -0.139174 -3.902722 -1.619021 1.372414 -0.501559 0.367765 -0.098906 -0.100372 0.334594 0.996432 0.026109 0.128536 0.000000 0.000000 0.000000 -0.607491 0.146457 0.359862 -0.769842 0.913657 -1.141425 0.168165 -3.180038 4.061386 0.000000 0.000000 0.000000 -0.845438 0.373346 0.079893 1.245302 -12.090082 -10.633468 -2.402118 1.061806 -2.309126 18.809412 -21.756955 -63.752118 -0.526817 -21.901895 0.077325 0.000000 0.000000 0.000000 -0.371776 0.213765 0.228821 2.045764 7.064982 10.751552 0.781904 3.773510 -2.312056 6.515590 27.650365 63.019567 0.699879 17.819400 0.567792 0.000000 0.000000 0.000000 
